<svg width="9" height="9" viewBox="0 0 9 9" fill="none" xmlns="http://www.w3.org/2000/svg">
<path d="M7.94678 0.306152C8.11279 0.306152 8.22998 0.345215 8.29834 0.42334C8.37158 0.496582 8.4082 0.623535 8.4082 0.804199C8.4082 0.984863 8.37158 1.11426 8.29834 1.19238C8.22998 1.26562 8.11279 1.30225 7.94678 1.30225H7.4707L5.20752 4.48096L7.7417 8.00391H8.1665C8.33252 8.00391 8.44971 8.04297 8.51807 8.12109C8.59131 8.19434 8.62793 8.32129 8.62793 8.50195C8.62793 8.68262 8.59131 8.81201 8.51807 8.89014C8.44971 8.96338 8.33252 9 8.1665 9H5.57373C5.40771 9 5.28809 8.96338 5.21484 8.89014C5.14648 8.81201 5.1123 8.68262 5.1123 8.50195C5.1123 8.32129 5.14648 8.19434 5.21484 8.12109C5.28809 8.04297 5.40771 8.00391 5.57373 8.00391H6.37207L4.50439 5.33057L2.59277 8.00391H3.20068C3.3667 8.00391 3.48389 8.04297 3.55225 8.12109C3.62549 8.19434 3.66211 8.32129 3.66211 8.50195C3.66211 8.68262 3.62549 8.81201 3.55225 8.89014C3.48389 8.96338 3.3667 9 3.20068 9H0.827637C0.661621 9 0.541992 8.96338 0.46875 8.89014C0.400391 8.81201 0.366211 8.68262 0.366211 8.50195C0.366211 8.32129 0.400391 8.19434 0.46875 8.12109C0.541992 8.04297 0.661621 8.00391 0.827637 8.00391H1.28174L3.83789 4.46631L1.55273 1.30225H1.04736C0.881348 1.30225 0.761719 1.26562 0.688477 1.19238C0.620117 1.11426 0.585938 0.984863 0.585938 0.804199C0.585938 0.623535 0.620117 0.496582 0.688477 0.42334C0.761719 0.345215 0.881348 0.306152 1.04736 0.306152H3.56689C3.73291 0.306152 3.8501 0.345215 3.91846 0.42334C3.9917 0.496582 4.02832 0.623535 4.02832 0.804199C4.02832 0.984863 3.9917 1.11426 3.91846 1.19238C3.8501 1.26562 3.73291 1.30225 3.56689 1.30225H2.91504L4.53369 3.6167L6.15967 1.30225H5.72021C5.5542 1.30225 5.43457 1.26562 5.36133 1.19238C5.29297 1.11426 5.25879 0.984863 5.25879 0.804199C5.25879 0.623535 5.29297 0.496582 5.36133 0.42334C5.43457 0.345215 5.5542 0.306152 5.72021 0.306152H7.94678Z" fill="#FF0000"/>
</svg>
